<?xml version="1.0" encoding="UTF-8"?>
<svg id="Layer_1" data-name="Layer 1" xmlns="http://www.w3.org/2000/svg" viewBox="0 0 202.29 231.99">
  <defs>
    <style>
      .cls-1 {
        fill: #404040;
      }

      .cls-2 {
        fill: #e8cf6d;
        stroke: #e8cf6d;
      }

      .cls-3 {
        fill: #78b0de;
        stroke: #78b0de;
      }

      .cls-4 {
        fill: #8178de;
        stroke: #8178de;
      }

      .cls-5 {
        fill: #f7c3e8;
        stroke: #f7c3e8;
      }

      .cls-6 {
        fill: #d6de78;
        stroke: #d6de78;
      }
    </style>
  </defs>
  <path d="M162.6,36,161.43,36.02c-2.78.08-3.09.12-5.94.86-.31.08-.6.27-.79.54-2.29,3.32-1.9,6.84-1.83,10.84.02,1.26.04,2.53.05,3.83l.04,1.69c.02.69.57,1.25,1.27,1.28l1.15.04c17.05.89,31.12,7.08,44.49,17.47.09.07.18.15.25.24,1.84,2.18,1.87,2.27,2.15,5.35,0,.09,0,.18,0,.26l-.13,1.2c-.09.8-.74,1.32-1.47,1.23l-.46-.06c-14.85-1.6-28.12-1.25-42.4,2.97-.5.15-.87.58-.94,1.1l-.23,1.81q-.24,1.74-.48,3.52l-.45,3.41s-.01.09-.02.13c-.97,4.38-2.71,7.14-5.68,10.4-.11.12-.24.22-.37.3-3.88,2.21-7.13,2.12-11.54,1.58-.08,0-.17-.03-.25-.05-2.79-.78-3.33-.94-4.72-1.49-.65-.26-1.39.04-1.68.67-.47,1.03-.94,2.07-1.41,3.11q-.54,1.18-1.09,2.39c-.7,1.71-1.24,3.34-1.67,5.08-.18.7.24,1.42.94,1.6l.74.19c5.33,1.48,9.6,3.03,14.02,6.48l1.76,1.3c.12.09.23.2.31.32.89,1.32.93,1.47.88,3.59,0,.18-.04.37-.11.53-1.08,2.78-2.09,3.54-4.63,5.12-.13.08-.28.15-.43.18-2.9.74-5.8,1.19-8.74,1.63-.95.14-1.42,1.22-.89,2.02l4.37,6.56c.29.44.82.66,1.34.56l4.07-.81s.09-.02.14-.02c6.85-.67,12.13-.03,17.85,3.95.06.04.11.08.16.13,2.59,2.28,3.78,3.7,4.15,7.16,0,.06,0,.12,0,.17,0,1.85-.04,3.68-.16,5.51-.04.63.36,1.21.96,1.37,11.39,3.08,22.47,2.72,34.13,1.78.51-.04,1,.22,1.26.66.98,1.67,1.53,2.93,1.43,5,0,.19-.06.38-.13.55-4.1,9.12-16.99,14.1-25.7,17.71-.02.01-.05.02-.07.03-3.62,1.27-7.2,2.25-10.96,2.99l-3.36.67c-.05.01-.11.02-.16.02-12.34,1.08-13.23,1.16-18.23-.32-.69-.2-1.42.18-1.63.86-.13.43-.25.8-.25.8-.02.07-.05.13-.08.2-1.63,3.46-3.91,5.86-6.6,8.51-.47.49-.95.99-1.44,1.5-2.7,2.7-4.72,4.17-8.26,4.65-.59.08-1.17-.22-1.42-.76-.37-.79-.43-1.19-.53-2.56-.03-.36.09-.73.33-1,1.63-1.87,3.21-3.47,5.07-5.13,1.81-1.64,3.5-3.3,5.19-5.05.24-.25.37-.58.37-.92v-1.54c0-.56-.35-1.05-.88-1.24l-1.55-.54c-13.65-4.98-27.07-11.76-35.05-24.5-1.43-1.91-1.44-1.93-3.96-1.83-.04,0-.09,0-.14.01l-2.88.41c-22.15,2.57-22.25,2.58-30.18-3.49-.07-.05-.14-.12-.21-.19-2.16-2.33-3.09-4.29-3.63-7.37-.03-.17-.03-.36,0-.53.73-3.98,2.35-6.65,5.36-9.41.05-.05.11-.1.17-.14,6.7-4.68,13.6-7.83,21.14-10.82.47-.19.8-.63.83-1.14l.14-2.34c.08-1.38.17-2.76.25-4.14.04-.69.08-1.38.12-2.09.16-2.52.37-4.72.98-7.04.21-.8-.36-1.6-1.19-1.64-2.59-.14-5.19-.28-7.78-.41-.88-.05-1.76-.1-2.66-.14-5.3-.27-10.57-.39-15.88-.36-.6,0-1.13-.4-1.27-.99l-.5-2.01c-.15-.59.27-1.53.81-1.8,8.99-4.54,19.1-2.59,28.72-.47.69.15,1.37-.27,1.55-.95l.16-.62c3.68-13.21,10.46-25.34,21.61-33.73.07-.05.14-.11.2-.18,2.09-2.25,2.09-2.3,1.67-5.91-.21-1.43-.45-2.86-.7-4.29-.23-1.52-.45-3.04-.66-4.56q-.16-1.13-.32-2.29c-1.4-11.65-1.51-12.61.22-16.18.29-.59.97-.88,1.59-.67l1.17.39c.46.15.8.55.88,1.03l.22,1.39c.53,3.24,1.06,6.47,1.59,9.7q.27,1.69.55,3.42c.18,1.08.35,2.15.54,3.26.16.99.32,1.99.49,3.02.28,1.86.35,2.29.86,3.29.33.64,1.1.9,1.75.59l1.33-.65c9.22-4.41,17.74-8.03,27.9-7.85.84.01,1.46-.78,1.28-1.59l-.11-.51c-1.33-7.31-1.34-14.14,2.37-20.64.07-.13.17-.25.28-.35,5.08-4.78,11.42-4.84,17.25-1.22.37.23.6.64.63,1.07.11,1.51.12,1.98.04,3.1-.05.68-.61,1.22-1.29,1.23M103.27,83.68c-10.73,12.98-15.13,28.38-15.27,45,0,.21.05.42.14.61l.42.84c.26.52.83.81,1.4.7l1.47-.26c9.5-1.55,18.69-1.75,28.26-1.59.72.01,1.32-.56,1.33-1.29l.02-1.51c.51-13.74,3.93-25.16,13.91-35.13.03-.03.06-.06.09-.09,15.59-13.6,33.38-16.22,52.94-16.03,1.28.01,1.83-1.63.79-2.37-27.51-19.69-62.05-13.2-85.42,11.02-.03.03-.06.07-.09.1ZM144.62,90.25l-2.36,1.8s-.05.04-.07.06c-1.72,1.49-3.05,2.96-4.34,4.7-.48.65-.27,1.58.44,1.96,1.62.89,2.87,1.2,5.06,1.06.14,0,.29-.04.42-.08,2.45-.84,3.43-1.53,5.02-3.49.13-.16.24-.37.29-.57.49-1.96.5-2.07.61-4.37.07-.81.13-1.62.2-2.45h0c.06-1.03-1.04-1.75-1.93-1.23-1.22.71-2.34,1.85-3.33,2.62ZM126.25,124.48l.57,3.42c.11.63.65,1.09,1.29,1.09h8.21c1.27,0,1.8-1.64.77-2.38s-2.32-1.09-4.03-1.75c-.9-.35-1.79-.71-2.71-1.07-1.48-.6-1.99-.81-2.76-.85-.83-.04-1.48.71-1.34,1.52ZM90.09,138.09c.63,6.11,3,11.4,5.5,17,.24.54.81.86,1.39.78,10.4-1.35,20.44-3.85,30.57-6.5.77-.2,1.19-1.03.9-1.76-1.59-4-3.35-7.92-5.11-11.85-.21-.47-.67-.77-1.18-.78-3.72-.05-7.44-.08-11.16-.11q-1.69-.03-3.41-.05c-5.87-.03-10.98.28-16.54,1.86-.61.17-1.02.77-.96,1.41ZM62.33,149.64l-.84.86c-.3.31-.43.75-.35,1.17l.72,3.62c.09.44.39.81.81.97,5.05,1.94,9.6,2,15.02,1.92q1.28,0,2.59,0c3.08-.02,5.56-.04,8.37-.78.74-.19,1.16-.97.92-1.69l-.12-.37-5.14-15.42c-.18-.55-.71-.93-1.28-.9-7.89.38-15.14,5.32-20.7,10.62ZM143.59,151.41l-.45.45c-.62.62-.55,1.57.11,2.04,1.17.85,2.34,1.69,3.51,2.53l2.63,1.91s.05.04.08.05c1.87,1.18,3.29,1.88,5.18,2.33.73.17,1.45-.32,1.57-1.05.2-1.18.48-2.88.64-3.87.08-.49-.13-1-.54-1.28-3.87-2.6-7.09-3.24-11.73-3.5-.37-.02-.74.12-1,.38ZM124.93,155.53c-.68.16-1.37.31-2.07.47-2.18.5-4.36,1-6.54,1.5-1.48.34-2.96.67-4.44,1.01-3.12.71-6.24,1.43-9.36,2.14-.81.19-1.24,1.07-.9,1.83,4,8.84,13.83,15.52,22.39,19.51,15.88,6.79,33.26,7.63,49.53,1.5,5.81-2.5,10.75-5.24,15.26-9.34.86-.78.31-2.22-.85-2.26h-.34c-19.62-.79-37.37-3.97-52.2-17.54-.25-.23-.59-.36-.93-.36-3.33.07-6.24.77-9.54,1.53Z"/>
  <path class="cls-1" d="M178,36l2,1-2-1Z"/>
  <path class="cls-4" d="M104.19,203.02l-3.42,7.26-7.71-1.17c-1.22-.34-.92.47-.61.92l4.1,6.52-4.4,6.77c-.73,1.13.1,1.17.61,1.05l7.03-1.05,3.85,7.2c.68,1.72,1.39.72,1.65,0l2.69-6.09,7.83.31c1.37.44.94-.64.55-1.23l-4.22-6.65,5.44-6.09c1.03-1.13.06-1.25-.55-1.17l-8.26.68-3.3-7.26c-.59-1.03-1.1-.43-1.28,0Z"/>
  <path class="cls-3" d="M174.36,37.07l9.03,5.96c-.28,1.87-.49,6.08-.92,9.51-.43,3.43,1.11,1.89,1.94.69l5.09-8.11,9.19,1.55c4.03.69,2.69-.9.76-2.23l-7.85-5.46,1.17-10.15c-.09-2.07-1.02-1.21-1.44-.49l-5.65,8.32c-2.75-.21-9.72-.59-10.92-.74-1.2-.15-1.57.74-.39,1.15Z"/>
  <path class="cls-2" d="M103.1,5.39l-1.49,8.7c-1.49-.91-4.93-2.98-6.77-4.01-1.84-1.03-1.49.25-1.08,1.02l3.72,7.27c-2.14.43-6.8,1.41-8.26,1.9-1.46.49-.61,1.06,0,1.29l7.52,1.7c-1.13,1.99-3.6,6.39-4.47,8.02s.36,1.36,1.08,1.02l7.65-4.01c.43,2.45,1.41,7.53,1.9,8.29.49.76,1.06.32,1.29,0l2.71-7.81c1.56,1.11,5.13,3.52,6.97,4.28,1.84.76,1.53-.59,1.15-1.36l-3.72-7.68c2.39-.68,7.6-2.22,9.28-2.92,1.68-.71.61-1.29-.14-1.49l-9.89-2.04c1.17-1.88,3.59-5.93,3.86-7.07.27-1.14-.56-1.06-1.02-.88l-6.3,3.6c-.81-2.26-2.53-7-2.91-7.81-.38-.82-.88-.34-1.08,0Z"/>
  <path class="cls-6" d="M25.04,118.21l3.33,7.38c1.24,2.74,2.88.94,3.55-.3l4.59-7.9c1.75-1.17,5.88-3.83,8.37-5.14,2.49-1.31.79-2.58-.37-3.06l-7.55-3.8-4.89-7.68c-1.3-3.16-2.67-1.32-3.18,0l-4.07,6.86-7.48,4.92c-3.32,1.49-1.38,3.11,0,3.73l7.7,4.99Z"/>
  <path class="cls-5" d="M29.79,150.36c-1.09,8.54-6.25,14.8-8.7,16.86-1.87,1.14-.47,1.52.47,1.57,7.65,1.24,13.95,6.65,16.15,9.2,1.72,2.49,2.16.61,2.16-.65.51-8.11,4.66-13.87,7.69-16.15,3-1.94.91-1.96-.56-1.87-7.72.48-12.81-6.53-15.35-9.52-1.5-2.42-1.87-.64-1.86.56Z"/>
</svg>