<svg width="2171" height="1439" viewBox="0 0 2171 1439" fill="none" xmlns="http://www.w3.org/2000/svg">
<path d="M1719.08 680.433L1168.58 755.933C1021.78 753.133 982.742 781.767 981.575 796.433L735.575 947.933C646.375 949.533 577.075 976.267 553.575 989.433C442.575 1061.43 215.575 1207.93 195.575 1217.93C175.575 1227.93 132.242 1314.43 113.075 1356.43C92.0752 1377.43 45.3752 1421.63 26.5752 1430.43C7.77518 1439.23 4.40851 1426.77 5.07518 1419.43C39.5752 1280.6 118.775 920.933 159.575 592.933C168.075 511.933 183.775 344.633 178.575 323.433M1719.08 680.433L1859.58 581.933C1871.24 569.767 1919.48 550.533 2019.08 570.933C2060.58 582.6 2143.58 607.533 2143.58 613.933C2143.58 621.933 2192.58 621.433 2143.58 711.433L2100.08 810.433C2094.24 825.433 2071.48 856.133 2027.08 858.933C1982.68 861.733 1921.91 872.767 1897.08 877.933C1873.91 888.6 1822.88 895.533 1804.08 837.933C1785.28 780.333 1764.58 729.6 1756.58 711.433L1719.08 680.433ZM178.575 323.433L104.075 234.933C96.4085 221.267 84.8752 188.733 100.075 167.933L147.575 25.4333C155.575 9.2666 173.675 -12.6667 182.075 28.9333V120.433L178.575 251.933V323.433Z" stroke="#c9d1d9" stroke-width="5"/>
</svg>
