<svg width="246" height="237" viewBox="0 0 246 237" fill="none" xmlns="http://www.w3.org/2000/svg">
<path d="M108.963 3.81285L97.9633 67.8129C86.9633 61.1462 61.5633 45.9129 47.9633 38.3129C34.3633 30.7129 36.9633 40.1462 39.9633 45.8129L67.4633 99.3129C51.6299 102.48 17.2633 109.713 6.46327 113.313C-4.33673 116.913 1.96327 121.146 6.46327 122.813L61.9633 135.313C53.6299 149.98 35.3633 182.313 28.9633 194.313C22.5633 206.313 31.6299 204.313 36.9633 201.813L93.4633 172.313C96.63 190.313 103.863 227.713 107.463 233.313C111.063 238.913 115.297 235.646 116.963 233.313L136.963 175.813C148.463 183.98 174.863 201.713 188.463 207.313C202.063 212.913 199.797 202.98 196.963 197.313L169.463 140.813C187.13 135.813 225.563 124.513 237.963 119.313C250.363 114.113 242.463 109.813 236.963 108.313L163.963 93.3129C172.63 79.4795 190.463 49.7129 192.463 41.3129C194.463 32.9129 188.297 33.4795 184.963 34.8129L138.463 61.3129C132.463 44.6462 119.763 9.81285 116.963 3.81285C114.163 -2.18715 110.463 1.31285 108.963 3.81285Z" fill="#E8CF6D" stroke="#E8CF6D"/>
</svg>
