<svg width="216" height="237" viewBox="0 0 216 237" fill="none" xmlns="http://www.w3.org/2000/svg">
<path d="M101.362 5.13807L73.3618 64.1381L10.3618 54.6381C0.361786 51.8381 2.86179 58.4714 5.36179 62.1381L38.8618 115.138L2.86178 170.138C-3.13822 179.338 3.69512 179.638 7.86178 178.638L65.3618 170.138L96.8618 228.638C102.462 242.638 108.195 234.471 110.362 228.638L132.362 179.138L196.362 181.638C207.562 185.238 204.028 176.471 200.862 171.638L166.362 117.638L210.862 68.1381C219.262 58.9381 211.362 57.9714 206.362 58.6381L138.862 64.1381L111.862 5.13807C107.062 -3.26193 102.862 1.63807 101.362 5.13807Z" fill="#8178DE" stroke="#8178DE"/>
</svg>
